<?xml version="1.0" encoding="utf-8"?>
<?xml-stylesheet type="text/xsl" href="rss1.xsl"?>
<rss version="2.0" xmlns:atom="http://www.w3.org/2005/Atom" xmlns:content="http://purl.org/rss/1.0/modules/content/" xmlns:dc="http://purl.org/dc/elements/1.1/" xmlns:media="http://search.yahoo.com/mrss/">
<channel>
 <title>Getty</title>
 <link>http://www.gettyimg.com/</link>
 <atom:link href="http://www.gettyimg.com/" rel="self" type="application/rss+xml" />

 
                <item>
                <title><![CDATA[【Apple Music】WEB-RiP - Kim Petras Feat. Nicki Minaj - Alone (2023) 2160p AM WEB-DL AAC2.0 H.265]]></title>
                <link><![CDATA[https://sharemania.us/threads/kim-petras-feat-nicki-minaj-alone-2023-2160p-am-web-dl-aac2-0-h-265.220238/]]></link>
                <description><![CDATA[<article>
<blockquote class="messageText SelectQuoteContainer ugc baseHtml">
<div style="text-align: center"><img src="https://i.imgur.com/rJsNaAL.jpg" class="bbCodeImage LbImage" alt="[​IMG]" data-url="https://i.imgur.com/rJsNaAL.jpg" style=""> <br>
<div style="text-align: center">​</div>
<div class="ToggleTriggerAnchor bbCodeSpoilerContainer">
<button type="button" class="button bbCodeSpoilerButton ToggleTrigger Tooltip JsOnly" data-target="> .SpoilerTarget"><span>Spoiler</span></button>
<div class="SpoilerTarget bbCodeSpoilerText">General<br>
Complete name : C:\Users\BR8NG0R\Downloads\Alone.m4v<br>
Format : MPEG-4<br>
Codec ID : M4V (isom/M4V /mp42)<br>
File size : 469 MiB<br>
Duration : 3 min 8 s<br>
Overall bit rate mode : Variable<br>
Overall bit rate : 20.9 Mb/s<br>
Frame rate : 23.976 FPS<br>
Movie name : Alone<br>
Performer : Kim Petras &amp; Nicki Minaj<br>
Genre : Pop<br>
ContentType : Music Video<br>
Recorded date : 2023-05-02 07:00:00 UTC<br>
Encoded date : 2023-05-03 19:35:42 UTC<br>
Tagged date : 2023-05-03 19:35:42 UTC<br>
Copyright : ℗ 2023 Amigo Records, LLC, under exclusive license to Republic Records, a division of UMG Recordings, Inc.<br>
Cover : Yes<br>
Rating : Explicit<br>
GenreID : 1614<br>
AppleStoreCountry : Brazil<br>
AlbumTitleID : 291697579<br>
AppleStoreCatalogID : 1685903375<br>
Video<br>
ID : 2<br>
Format : HEVC<br>
Format/Info : High Efficiency Video Coding<br>
Format profile : Main 10@L5@High<br>
Codec ID : hvc1<br>
Codec ID/Info : High Efficiency Video Coding<br>
Duration : 3 min 8 s<br>
Source duration : 3 min 8 s<br>
Bit rate : 19.8 Mb/s<br>
Maximum bit rate : 95.6 Mb/s<br>
Width : 3 840 pixels<br>
Height : 2 160 pixels<br>
Display aspect ratio : 16:9<br>
Frame rate mode : Constant<br>
Frame rate : 23.976 (24000/1001) FPS<br>
Color space : YUV<br>
Chroma subsampling : 4:2:0<br>
Bit depth : 10 bits<br>
Scan type : Progressive<br>
Bits/(Pixel*Frame) : 0.099<br>
Stream size : 444 MiB (95%)<br>
Source stream size : 462 MiB (99%)<br>
Title : Core Media Video<br>
Language : English<br>
Encoded date : 2023-05-02 17:45:40 UTC<br>
Tagged date : 2023-05-03 19:35:43 UTC<br>
Color range : Limited<br>
Color primaries : BT.709<br>
Transfer characteristics : BT.709<br>
Matrix coefficients : BT.709<br>
mdhd_Duration : 188313<br>
Codec configuration box : hvcC<br>
Audio<br>
ID : 1<br>
Format : AAC LC<br>
Format/Info : Advanced Audio Codec Low Complexity<br>
Codec ID : mp4a-40-2<br>
Duration : 3 min 8 s<br>
Duration_LastFrame : -7 ms<br>
Bit rate mode : Variable<br>
Bit rate : 265 kb/s<br>
Maximum bit rate : 308 kb/s<br>
Channel(s) : 2 channels<br>
Channel layout : L R<br>
Sampling rate : 48.0 kHz<br>
Frame rate : 46.875 FPS (1024 SPF)<br>
Compression mode : Lossy<br>
Stream size : 5.88 MiB (1%)<br>
Title : Core Media Audio<br>
Encoded date : 2023-05-02 17:38:09 UTC<br>
Tagged date : 2023-05-03 19:35:43 UTC<br>
Text<br>
ID : 3<br>
Format : EIA-608<br>
Codec ID : c608<br>
Duration : 3 min 5 s<br>
Bit rate mode : Variable<br>
Bit rate : 189 b/s<br>
Maximum bit rate : 1 184 b/s<br>
Frame rate : 0.394 FPS<br>
Stream size : 4.29 KiB (0%)<br>
Title : Core Media Closed Caption<br>
Language : English<br>
Forced : No<br>
Encoded date : 2023-05-02 17:45:40 UTC<br>
Tagged date : 2023-05-03 19:35:43 UTC</div>
</div><br>
<div class="bbCodeBlock bbCodeVfcHH HiddenContent">
<div class="attribution type">Hidden Content:</div>
<blockquote>You must reply before you can see the hidden data contained here.</blockquote>
</div></div>
<div class="messageTextEndMarker">&nbsp;</div>
</blockquote>
</article>]]></description>
                <author><![CDATA[Brungor]]></author>
                </item>

                
                <item>
                <title><![CDATA[【Requests】Filled - [REQ AUD] Tiny Beautiful Things (Original Series Soundtrack)]]></title>
                <link><![CDATA[https://sharemania.us/threads/req-aud-tiny-beautiful-things-original-series-soundtrack.220223/]]></link>
                <description><![CDATA[<article>
<blockquote class="messageText SelectQuoteContainer ugc baseHtml">
<span style="font-family: 'Georgia'">Hi !<br>
<br>
I'm looking for the <b>Tiny Beautiful Things</b> Soundtrack, in any lossless format, please.<br>
</span><br>
<div style="text-align: center"><span style="font-family: 'Georgia'"><img src="https://is2-ssl.mzstatic.com/image/thumb/Music126/v4/56/16/06/56160622-491d-4cef-9196-753fc4c21475/23UMGIM33517.rgb.jpg/316x316bb.webp" class="bbCodeImage LbImage" alt="[​IMG]" data-url="https://is2-ssl.mzstatic.com/image/thumb/Music126/v4/56/16/06/56160622-491d-4cef-9196-753fc4c21475/23UMGIM33517.rgb.jpg/316x316bb.webp" style=""> </span><br>
<i><span style="font-family: 'Georgia'">1 - Horses<br>
2 -Frankie<br>
3 - Pediatric Intensive Care<br>
4 - Tiny Beautiful Wedding<br>
5 - Closer to Fine<br>
6 - Surprise Pregnancy<br>
7 - Tiny Beautiful Flashback<br>
8 - Two Weeks<br>
9 - Paper Roses<br>
10 - Writer's Block<br>
11 - Tiny Beautiful Sequence</span></i><br>
<span style="font-family: 'Georgia'"><i>12 - River Runs Through It<br>
13 - Graduation<br>
14 - God Only Knows<br>
15 - This Is the Place<br>
16 - Thank You<br>
17 - Divine Love<br>
18 - Love Love Love<br>
19 - Not Gone</i></span>​</div><span style="font-family: 'Georgia'"><br>
<a href="https://music.apple.com/us/album/tiny-beautiful-things-original-series-soundtrack/1679730046" target="_blank" class="externalLink" rel="nofollow">https://music.apple.com/us/album/tiny-beautiful-things-original-series-soundtrack/1679730046</a><br>
<a href="https://www.qobuz.com/us-en/album/tiny-beautiful-things-ingrid-michaelson-gabriel-mann-ariza/lqkic6ey72v8a" target="_blank" class="externalLink" rel="nofollow">https://www.qobuz.com/us-en/album/t...d-michaelson-gabriel-mann-ariza/lqkic6ey72v8a</a><br>
<a href="https://tidal.com/browse/album/286319740" target="_blank" class="externalLink" rel="nofollow">https://tidal.com/browse/album/286319740</a><br>
<br>
<br>
Thanks in advance for your help </span>
<div class="messageTextEndMarker">&nbsp;</div>
</blockquote>
</article>]]></description>
                <author><![CDATA[Cristalex]]></author>
                </item>

                </channel></rss>